#!OML:ASF X:\für Bonn\!DataBase\2005_08_11_Bastian_Final\c3d\Bastian.ASF
:FULLY-SPECIFIED
:DEGREES
47
root -2.28711 16.6303 -5.26776 166.598 -32.711 -177.943
lowerback 12.1559 -4.33475 -8.01493
upperback 5.82078 -7.17757 2.91995
thorax 0.738827 -4.11958 8.32563
lowerneck 11.8283 -14.1517 -7.21314
upperneck -13.7569 -18.8791 13.3586
head -4.00579 -10.0068 6.23771
rclavicle 1.33981e-013 -3.18055e-014
rhumerus -190.554 -182.144 114.798
rradius 127.882
rwrist -131.274
rhand 8.82817 6.85121
rfingers 7.12502
rthumb 34.0141 -19.9294
lclavicle 1.33981e-013 -3.18055e-014
lhumerus 50.1657 -19.6944 56.8951
lradius 84.4706
lwrist 224.628
lhand -15.4955 24.2746
lfingers 7.12502
lthumb 10.6869 53.9828
rfemur -21.0401 -17.928 14.7396
rtibia 59.2152
rfoot -13.6464 -9.0763
rtoes -2.702
lfemur 16.6182 6.55451 -12.9283
ltibia 29.6576
lfoot -26.6028 -5.15541
ltoes -22.6689
48
root -2.28485 16.6276 -5.23983 166.535 -33.347 -178.142
lowerback 12.3535 -4.27843 -8.0618
upperback 5.74824 -7.1112 2.82851
thorax 0.53497 -4.06675 8.27773
lowerneck 12.0076 -14.3874 -7.52488
upperneck -13.4763 -19.229 13.6969
head -3.84476 -10.1907 6.36625
rclavicle -4.81307e-014 8.34896e-015
rhumerus -188.725 -181.791 116.174
rradius 128.141
rwrist -130.711
rhand 9.47089 7.48991
rfingers 7.12502
rthumb 34.6243 -19.153
lclavicle -4.81307e-014 8.34896e-015
lhumerus 52.3802 -19.0939 56.4279
lradius 83.9217
lwrist 224.314
lhand -15.2565 24.8365
lfingers 7.12502
lthumb 10.9173 54.5327
rfemur -20.972 -17.359 14.0196
rtibia 59.1962
rfoot -13.7214 -8.26319
rtoes -4.60766
lfemur 16.4499 6.259 -13.1802
ltibia 29.9265
lfoot -26.6493 -5.57621
ltoes -22.2257
49
root -2.28306 16.6256 -5.21569 166.515 -33.9779 -178.369
lowerback 12.5014 -4.22963 -8.11891
upperback 5.66613 -7.05062 2.7188
thorax 0.347999 -4.01581 8.21091
lowerneck 12.2504 -14.6079 -7.7588
upperneck -13.2564 -19.5546 13.9932
head -3.72556 -10.3648 6.48242
rclavicle 4.67392e-014 -4.41302e-014
rhumerus -186.861 -181.4 117.536
rradius 128.339
rwrist -130.117
rhand 9.90927 8.19083
rfingers 7.12502
rthumb 35.0403 -18.3558
lclavicle 4.67392e-014 -4.41302e-014
lhumerus 54.5128 -18.5319 55.9576
lradius 83.3141
lwrist 223.978
lhand -15.0646 25.395
lfingers 7.12502
lthumb 11.1024 55.0813
rfemur -20.9 -16.7693 13.2937
rtibia 59.1232
rfoot -13.824 -7.59407
rtoes -6.241
lfemur 16.3033 5.98409 -13.4492
ltibia 30.1311
lfoot -26.6876 -5.93268
ltoes -22.0039
50
root -2.28209 16.6242 -5.1962 166.522 -34.5964 -178.634
lowerback 12.6413 -4.17815 -8.22394
upperback 5.57419 -6.99177 2.62081
thorax 0.163426 -3.96662 8.18311
lowerneck 12.4515 -14.8208 -7.97684
upperneck -13.0363 -19.8739 14.227
head -3.60728 -10.5314 6.57385
rclavicle 4.32854e-014 9.14409e-015
rhumerus -185.02 -180.906 118.932
rradius 128.439
rwrist -129.541
rhand 10.3277 8.86876
rfingers 7.12502
rthumb 35.4371 -17.5841
lclavicle 4.32854e-014 9.14409e-015
lhumerus 56.5081 -17.9725 55.5299
lradius 82.7086
lwrist 223.57
lhand -14.7998 25.9844
lfingers 7.12502
lthumb 11.3578 55.6568
rfemur -20.7986 -16.18 12.54
rtibia 58.9974
rfoot -13.8951 -7.00171
rtoes -7.28299
lfemur 16.2039 5.73406 -13.7369
ltibia 30.2722
lfoot -26.6694 -6.3044
ltoes -21.7129
51
root -2.28346 16.6233 -5.18018 166.584 -35.2112 -178.907
lowerback 12.7027 -4.12845 -8.27195
upperback 5.4803 -6.921 2.49111
thorax 0.00503039 -3.90932 8.07931
lowerneck 12.6726 -15.0508 -8.08277
upperneck -12.8655 -20.2024 14.4485
head -3.51774 -10.7081 6.65301
rclavicle 8.81113e-014 -2.46493e-014
rhumerus -183.223 -180.268 120.264
rradius 128.472
rwrist -128.95
rhand 10.6692 9.40812
rfingers 7.12502
rthumb 35.7608 -16.9668
lclavicle 8.81113e-014 -2.46493e-014
lhumerus 58.4422 -17.4407 54.9683
lradius 82.2165
lwrist 223.359
lhand -14.4539 26.4707
lfingers 7.12502
lthumb 11.6914 56.1244
rfemur -20.7185 -15.6271 11.8055
rtibia 58.826
rfoot -13.9829 -6.52125
rtoes -8.56621
lfemur 16.0876 5.49001 -14.033
ltibia 30.3771
lfoot -26.6071 -6.69026
ltoes -21.2305
52
root -2.28577 16.622 -5.1673 166.645 -35.8062 -179.191
lowerback 12.7689 -4.07543 -8.34876
upperback 5.38023 -6.85083 2.38175
thorax -0.15563 -3.85343 8.01424
lowerneck 12.9124 -15.2619 -8.17168
upperneck -12.7437 -20.5052 14.6435
head -3.45273 -10.8718 6.72781
rclavicle -4.02787e-014 -2.38542e-015
rhumerus -181.442 -179.614 121.606
rradius 128.413
rwrist -128.333
rhand 10.9146 9.91111
rfingers 7.12502
rthumb 35.9933 -16.407
lclavicle -4.02787e-014 -2.38542e-015
lhumerus 60.2521 -16.905 54.3837
lradius 81.7953
lwrist 223.165
lhand -14.0763 26.8931
lfingers 7.12502
lthumb 12.0556 56.5258
rfemur -20.6025 -15.0855 11.0661
rtibia 58.6145
rfoot -13.9933 -6.07514
rtoes -9.49635
lfemur 16.0252 5.32223 -14.2967
ltibia 30.4494
lfoot -26.5242 -7.04519
ltoes -20.9378
